<?xml version="1.0" standalone="no"?>
<!DOCTYPE svg PUBLIC "-//W3C//DTD SVG 20010904//EN"
 "http://www.w3.org/TR/2001/REC-SVG-20010904/DTD/svg10.dtd">
<svg version="1.0" xmlns="http://www.w3.org/2000/svg"
 width="740.000000pt" height="740.000000pt" viewBox="0 0 740.000000 740.000000"
 preserveAspectRatio="xMidYMid meet">

<g transform="translate(0.000000,740.000000) scale(0.100000,-0.100000)"
fill="#000000" stroke="none">
<path d="M1437 6254 c-15 -8 -32 -26 -37 -40 -6 -14 -10 -131 -10 -260 l0
-234 294 0 294 0 -4 23 -5 22 10 -22 10 -23 1850 0 c1758 0 1850 1 1844 18 -6
16 -5 16 14 0 16 -15 39 -18 121 -18 l102 0 0 244 c0 244 0 245 -24 273 l-24
28 -2204 2 c-1955 2 -2206 1 -2231 -13z m1093 2 c0 -9 -40 -13 -46 -5 -3 5 6
9 20 9 14 0 26 -2 26 -4z m2772 -3 c-17 -3 -20 -8 -13 -17 6 -7 6 -17 1 -26
-11 -18 -16 -13 -25 23 -7 26 -5 27 26 26 25 -1 28 -3 11 -6z m-2842 -28 c0
-8 8 -15 17 -15 13 0 14 -3 6 -11 -9 -9 -16 -8 -27 4 -18 18 -21 37 -6 37 6 0
10 -7 10 -15z m-938 -52 c-3 -17 -8 -21 -17 -13 -9 7 -19 3 -38 -15 -15 -15
-28 -22 -31 -16 -4 6 2 19 14 31 11 11 20 25 20 30 0 6 6 10 14 10 8 0 17 8
21 18 7 16 8 16 14 -2 4 -11 6 -30 3 -43z m3715 40 c-4 -3 -2 -12 4 -20 9 -10
8 -13 -4 -13 -9 0 -19 5 -22 10 -8 12 2 30 17 30 6 0 8 -3 5 -7z m-2807 -23
c0 -5 -4 -10 -9 -10 -6 0 -13 5 -16 10 -3 6 1 10 9 10 9 0 16 -4 16 -10z
m2790 -45 c0 -7 -4 -17 -10 -20 -5 -3 -10 -1 -10 4 0 6 -7 11 -15 11 -8 0 -15
-7 -15 -15 0 -8 8 -15 18 -15 14 0 15 -2 2 -10 -22 -14 -40 -12 -40 5 0 19
-16 20 -23 1 -3 -8 1 -20 9 -26 8 -7 14 -16 14 -21 0 -17 -25 -9 -38 12 -12
18 -11 24 9 45 12 13 28 24 35 24 7 0 16 9 19 20 5 16 10 18 26 10 10 -6 19
-17 19 -25z m-2822 -24 c-12 -4 -29 20 -21 32 3 4 11 0 18 -10 9 -12 10 -19 3
-22z m1856 -5 c-3 -9 -13 -16 -21 -16 -9 0 -13 -6 -10 -15 5 -12 2 -12 -18 -3
-24 11 -35 38 -15 38 6 0 10 -4 10 -10 0 -5 5 -10 10 -10 6 0 10 8 10 18 0 27
22 46 32 28 4 -8 5 -21 2 -30z m-2837 -16 c1 -22 -2 -42 -8 -45 -5 -4 -9 13
-9 39 0 56 15 61 17 6z m947 4 c9 -24 0 -29 -19 -11 -19 19 -19 27 -1 27 8 0
17 -7 20 -16z m1824 -32 c2 -6 -6 -10 -17 -9 -22 1 -26 8 -14 21 9 9 26 3 31
-12z m-2501 -4 c43 -19 53 -33 53 -73 0 -51 -39 -90 -83 -81 -36 7 -77 46 -77
73 1 28 25 64 51 79 30 16 23 16 56 2z m314 -3 c29 -15 49 -49 49 -81 0 -26
-56 -74 -85 -74 -33 0 -85 50 -85 82 0 30 26 67 54 78 30 12 33 12 67 -5z
m312 3 c34 -17 46 -39 47 -80 0 -70 -85 -104 -135 -53 -33 32 -34 84 -2 112
36 33 58 38 90 21z m2787 -40 c0 -12 -7 -10 -24 8 -9 8 -13 20 -10 26 7 11 34
-17 34 -34z m-942 -11 c4 -31 -14 -37 -23 -7 -3 11 -11 20 -16 20 -6 0 -7 5
-4 11 12 19 40 4 43 -24z m-37 -41 c5 3 9 0 9 -6 0 -7 -7 -9 -15 -6 -8 3 -21
9 -29 12 -11 4 -14 -1 -13 -15 1 -12 5 -21 10 -21 4 0 5 -5 1 -11 -4 -7 -14
-4 -27 10 l-21 21 29 30 30 31 8 -26 c5 -14 13 -23 18 -19z m-986 -54 c-8 -2
-15 -13 -15 -24 0 -21 0 -21 -25 2 -25 23 -37 16 -13 -8 9 -9 9 -12 -3 -12
-19 0 -62 -57 -54 -70 12 -19 -21 -10 -38 10 -16 19 -15 21 17 42 18 12 42 35
52 50 13 19 25 26 37 22 11 -3 17 0 17 10 0 14 3 13 20 -2 17 -14 18 -18 5
-20z m908 -2 c20 -24 13 -43 -13 -35 -12 4 -19 -1 -23 -17 -6 -22 -7 -22 -24
-5 -16 16 -16 18 1 35 10 9 16 11 12 5 -9 -16 10 -17 20 -1 4 6 2 14 -4 16
-12 4 -7 22 6 22 4 0 15 -9 25 -20z m1817 -36 c0 -8 8 -14 18 -15 13 0 12 -2
-5 -9 -13 -5 -23 -15 -23 -21 0 -8 -7 -6 -18 4 -23 21 -39 22 -22 2 18 -22 3
-32 -18 -12 -15 16 -15 19 -2 27 8 5 23 10 33 10 10 0 17 8 17 21 0 11 5 17
10 14 6 -3 10 -13 10 -21z m-1916 -29 c-4 -8 -2 -15 4 -15 5 0 12 -7 15 -14 4
-10 1 -13 -8 -10 -16 7 -27 32 -19 45 9 14 14 10 8 -6z m1842 -36 c3 -6 0 -17
-7 -25 -12 -11 -14 -9 -15 11 -2 26 10 33 22 14z m-2805 -28 c-9 -6 -10 -11
-2 -15 6 -4 11 -11 11 -17 0 -5 -9 -4 -20 3 -27 17 -25 38 3 38 16 0 18 -3 8
-9z m2779 -39 c0 -13 -11 -10 -37 11 -7 5 -10 13 -7 18 7 12 44 -13 44 -29z
m-2805 -5 c7 -7 6 -8 -2 -3 -6 3 -13 0 -16 -6 -3 -10 -7 -10 -20 1 -14 11 -17
11 -17 1 0 -8 -2 -11 -5 -8 -3 3 -3 13 1 22 7 17 39 14 59 -7z"/>
<path d="M2999 5844 c-12 -14 -11 -16 5 -13 11 2 21 10 24 17 5 17 -13 15 -29
-4z"/>
<path d="M2334 5040 c-102 -52 -161 -155 -150 -263 8 -80 34 -134 89 -185 26
-23 47 -45 47 -47 0 -3 -8 -5 -19 -5 -10 0 -55 -18 -100 -41 -133 -66 -245
-198 -288 -337 l-14 -47 38 -33 c74 -63 125 -93 140 -80 11 8 12 7 7 -6 -5
-12 -2 -15 10 -10 11 4 16 2 14 -6 -2 -7 3 -15 11 -18 9 -3 11 0 6 9 -4 8 2 4
14 -8 29 -30 137 -62 244 -71 218 -19 410 38 580 173 68 54 68 53 7 181 -47
98 -138 194 -229 243 -34 18 -65 30 -68 27 -3 -3 -12 1 -20 9 -8 8 -21 15 -30
15 -13 0 -13 -3 1 -26 27 -40 15 -56 -17 -23 -19 19 -23 29 -14 29 9 0 13 7
11 18 -3 11 8 26 30 42 59 43 106 140 106 219 0 52 -21 112 -54 156 -40 52
-51 61 -111 90 -74 37 -163 35 -241 -5z m-65 -919 c-8 -2 -18 -10 -22 -18 -8
-12 -12 -12 -28 3 -10 9 -19 22 -19 28 0 6 5 5 12 -2 18 -18 27 -14 21 9 -6
21 -6 21 22 3 19 -12 23 -19 14 -23z m-55 -36 c9 -14 13 -25 10 -25 -11 0 -44
32 -44 42 0 16 18 8 34 -17z m-30 -14 c3 -4 -4 -17 -15 -27 -18 -16 -19 -16
-13 -1 5 13 2 16 -10 11 -15 -6 -15 -8 -1 -31 21 -31 15 -39 -11 -16 -25 23
-24 38 1 57 23 17 41 20 49 7z"/>
<path d="M6316 4871 c-59 -65 -3 -219 106 -287 l40 -26 -7 -101 c-8 -105 -36
-263 -53 -292 -7 -14 -11 -8 -21 30 -34 136 -134 222 -190 166 -61 -61 13
-211 130 -266 l47 -21 -20 -45 c-12 -24 -39 -71 -61 -104 -22 -33 -40 -65 -40
-72 0 -7 -5 -11 -11 -10 -6 1 -10 -6 -10 -15 1 -10 -1 -16 -5 -13 -4 2 -45
-38 -90 -90 -46 -52 -86 -95 -90 -95 -3 0 -5 33 -3 74 3 59 -1 84 -18 124 -20
47 -54 82 -80 82 -6 0 -10 -50 -10 -139 l0 -139 31 -26 31 -26 -31 -35 c-17
-20 -31 -42 -31 -50 0 -14 120 108 234 237 35 40 66 66 76 65 10 -1 18 -5 17
-10 -3 -16 76 -39 138 -41 61 -1 129 19 119 35 -3 5 3 6 12 2 13 -5 16 -3 11
10 -4 10 -2 16 6 14 19 -3 21 53 2 73 -36 40 -142 43 -229 6 -20 -8 -36 -14
-36 -12 0 2 21 38 46 80 51 85 107 232 125 328 l12 63 56 1 c133 2 257 111
218 194 -10 20 -21 26 -54 28 -54 4 -106 -23 -161 -82 -23 -25 -45 -46 -48
-46 -2 0 -4 54 -2 121 1 69 6 113 10 102 4 -10 5 7 2 37 -8 72 -35 130 -74
163 -37 32 -70 34 -94 8z"/>
<path d="M5963 3413 l-33 -4 0 -86 0 -86 51 6 c101 12 161 64 140 120 -14 36
-87 59 -158 50z"/>
<path d="M5037 3096 c-51 -19 -63 -31 -83 -82 -31 -82 3 -181 75 -219 26 -13
52 -12 237 5 115 11 211 20 213 20 5 0 -7 -46 -46 -167 -40 -125 -39 -123
-146 -142 -54 -10 -97 -26 -97 -37 0 -3 9 -22 19 -43 27 -51 85 -101 119 -101
34 0 149 67 175 102 27 37 32 110 13 202 -20 100 -20 155 0 177 13 14 21 16
35 8 29 -15 26 -89 -5 -126 -24 -29 -24 -46 2 -75 27 -31 48 -22 71 33 68 156
38 312 -68 356 -20 9 -71 19 -113 24 -42 4 -126 21 -185 37 -143 40 -171 44
-216 28z m375 -665 c-28 -37 -80 -55 -117 -41 l-30 12 50 22 c48 22 103 73
107 99 1 7 3 -6 5 -27 3 -28 -1 -47 -15 -65z"/>
<path d="M3464 3065 c-4 -9 0 -23 8 -31 20 -20 50 -7 46 20 -4 26 -45 35 -54
11z"/>
<path d="M3567 3073 c-13 -12 -7 -41 10 -47 21 -8 48 17 40 38 -6 16 -38 22
-50 9z"/>
<path d="M3673 3064 c-7 -20 22 -45 44 -37 8 3 13 15 11 27 -4 27 -45 35 -55
10z"/>
<path d="M3773 3064 c-7 -20 22 -45 44 -37 8 3 13 15 11 27 -4 27 -45 35 -55
10z"/>
<path d="M3890 3056 c0 -13 6 -26 13 -29 22 -7 37 4 37 29 0 19 -5 24 -25 24
-20 0 -25 -5 -25 -24z"/>
<path d="M3986 3065 c-4 -12 17 -45 29 -45 2 0 10 7 19 15 20 20 10 45 -19 45
-13 0 -25 -7 -29 -15z"/>
<path d="M4107 3073 c-12 -11 -7 -41 7 -46 21 -8 50 17 43 37 -6 16 -38 22
-50 9z"/>
<path d="M4207 3073 c-13 -12 -7 -41 10 -47 21 -8 48 17 40 38 -6 16 -38 22
-50 9z"/>
<path d="M3472 2601 c-20 -12 -10 -45 13 -48 11 -2 14 0 8 3 -18 8 -16 44 1
44 8 0 17 -10 19 -22 5 -20 5 -20 4 2 -2 26 -23 36 -45 21z"/>
<path d="M3564 2596 c-10 -26 4 -48 28 -44 17 2 23 10 23 28 0 18 -6 26 -23
28 -13 2 -25 -3 -28 -12z"/>
<path d="M3680 2595 c-11 -13 -11 -19 3 -32 21 -21 49 -9 45 19 -4 28 -30 35
-48 13z"/>
<path d="M3780 2595 c-11 -13 -11 -19 3 -32 21 -21 49 -9 45 19 -4 28 -30 35
-48 13z"/>
<path d="M3894 2596 c-9 -24 4 -48 23 -44 12 2 18 12 18 28 0 29 -32 41 -41
16z"/>
<path d="M3994 2596 c-9 -24 4 -48 23 -44 12 2 18 12 18 28 0 29 -32 41 -41
16z"/>
<path d="M4107 2603 c-10 -10 -8 -41 3 -48 17 -11 50 5 50 25 0 23 -37 40 -53
23z"/>
<path d="M4204 2595 c-8 -21 2 -45 19 -45 8 0 20 7 27 15 10 12 10 18 0 30 -7
8 -19 15 -27 15 -7 0 -16 -7 -19 -15z"/>
<path d="M4060 2220 l35 -7 -32 -2 c-25 -1 -31 -4 -26 -17 5 -13 2 -15 -15 -9
-12 3 -22 5 -22 3 0 -2 4 -17 9 -35 7 -26 7 -31 -5 -26 -8 3 -14 11 -14 18 0
7 -5 15 -11 17 -6 2 -2 16 11 33 l22 30 -26 -28 c-29 -32 -33 -59 -11 -77 8
-7 12 -17 9 -22 -4 -6 -10 -5 -15 3 -6 10 -9 5 -9 -16 1 -32 23 -65 57 -84 15
-8 127 -11 368 -11 380 0 391 1 415 59 28 68 6 145 -48 170 -15 7 -144 11
-375 10 -194 -1 -336 -5 -317 -9z"/>
<path d="M4760 1883 c-19 -10 -66 -47 -104 -83 -77 -73 -310 -344 -298 -348 4
-1 51 2 106 6 107 9 134 2 151 -36 5 -12 14 -22 18 -22 5 0 123 80 262 177
230 162 252 179 239 194 -8 9 -62 40 -118 69 -122 61 -196 73 -256 43z"/>
<path d="M5088 1428 l-178 -102 28 -18 c15 -10 36 -16 48 -13 11 2 82 34 157
70 l137 66 0 50 c0 27 -3 49 -7 49 -5 -1 -88 -47 -185 -102z"/>
<path d="M2765 1231 c-19 -8 -22 -34 -53 -391 -19 -210 -32 -384 -29 -386 2
-2 71 6 153 19 167 26 52 27 1819 -5 1033 -18 1085 -18 1172 10 85 26 146 70
190 136 46 67 64 134 70 260 l6 109 -39 -7 c-21 -4 -106 -28 -189 -53 -248
-74 -366 -69 -512 26 l-61 39 -288 -28 c-159 -16 -436 -43 -617 -61 -241 -25
-332 -31 -345 -23 -9 6 -26 27 -38 47 l-20 36 -17 -27 c-9 -15 -26 -39 -39
-54 l-23 -28 -420 -40 c-231 -22 -430 -42 -441 -45 -18 -4 -25 3 -38 36 -9 22
-21 72 -27 112 -16 101 -16 101 -34 83 -20 -20 -47 -9 -43 18 4 24 36 34 50
14 15 -20 1 68 -20 126 -25 73 -96 105 -167 77z m28 -316 c-7 -21 -13 -19 -13
6 0 11 4 18 10 14 5 -3 7 -12 3 -20z m171 10 c7 -19 -20 -46 -39 -39 -15 6
-20 35 -8 47 12 12 41 7 47 -8z m0 -81 c23 -9 20 -41 -4 -49 -35 -11 -54 17
-28 43 14 14 12 14 32 6z"/>
<path d="M5235 1194 c-22 -8 -47 -17 -55 -20 -10 -3 6 -18 47 -45 34 -21 65
-39 68 -39 3 0 4 27 3 60 -2 33 -7 60 -13 59 -5 0 -28 -7 -50 -15z"/>
<path d="M1261 922 l-143 -3 6 -37 c13 -73 73 -177 136 -235 61 -57 161 -114
179 -102 6 3 11 1 11 -5 0 -6 5 -8 10 -5 17 11 11 -5 -16 -41 l-26 -34 181 0
182 0 -26 34 -25 33 47 18 c98 37 242 157 229 192 -3 7 0 12 6 10 13 -2 52 87
61 141 l7 32 -258 1 c-141 1 -293 2 -337 3 -44 0 -145 0 -224 -2z m-31 -59
c19 -77 69 -160 130 -217 65 -60 120 -89 147 -79 17 6 17 6 1 -10 -15 -15 -20
-15 -59 -2 -145 52 -279 208 -279 325 0 25 4 30 24 30 20 0 26 -7 36 -47z
m410 -174 c0 -6 -4 -7 -10 -4 -5 3 -10 11 -10 16 0 6 5 7 10 4 6 -3 10 -11 10
-16z m-155 -109 c3 -6 -1 -7 -9 -4 -18 7 -21 14 -7 14 6 0 13 -4 16 -10z"/>
</g>
</svg>
